<svg width="600" height="240" viewBox="0 0 600 240" fill="none" xmlns="http://www.w3.org/2000/svg">
<g clip-path="url(#clip0_4_34)">
<path fill-rule="evenodd" clip-rule="evenodd" d="M562.425 60.6185H551.799C540.081 60.6185 531.251 53.1973 531.251 41.4782V40.469H590.65V50.9091L575.843 72.033C579.409 72.8323 582.789 74.3089 585.801 76.3831C590.237 79.4497 593.839 83.5798 596.279 88.398C598.756 93.2418 600.03 98.6143 599.991 104.058C600.02 108.524 599.104 112.946 597.302 117.03C595.559 120.983 593.114 124.586 590.086 127.662C586.964 130.81 583.249 133.304 579.157 134.996C575.064 136.688 570.676 137.546 566.25 137.519C562.682 137.523 559.139 136.935 555.763 135.779C552.507 134.672 549.428 133.098 546.621 131.107C543.831 129.128 541.367 126.724 539.317 123.981C537.264 121.23 535.619 118.194 534.434 114.968L534.104 114.098L553.751 105.885L554.028 107.06C554.677 109.893 556.193 112.452 558.365 114.377C559.971 115.869 561.982 116.849 564.144 117.193C566.306 117.537 568.521 117.229 570.509 116.308C573.499 114.933 575.829 112.432 576.997 109.348C577.619 107.766 577.937 106.08 577.934 104.38C577.945 102.637 577.627 100.907 576.997 99.2818C576.405 97.7427 575.521 96.3334 574.395 95.1319C573.232 93.8955 571.824 92.917 570.261 92.2592C568.699 91.6014 567.016 91.2789 565.322 91.3125C563.209 91.2643 561.129 91.8456 559.345 92.9829L558.565 93.4963L547.462 79.6456L562.425 60.6185Z" fill="#6699FF"/>
<path fill-rule="evenodd" clip-rule="evenodd" d="M386.891 116.934H442.404V137.475H381.114L386.891 116.934Z" fill="#4169E1"/>
<path fill-rule="evenodd" clip-rule="evenodd" d="M398.384 76.0785H434.502V96.6195H392.598L398.384 76.0785Z" fill="#4169E1"/>
<path fill-rule="evenodd" clip-rule="evenodd" d="M473.3 76.0785H493.64C494.647 76.0808 495.644 75.8837 496.574 75.4984C497.504 75.1132 498.35 74.5473 499.061 73.8335C499.773 73.1197 500.337 72.2719 500.721 71.3388C501.105 70.4057 501.302 69.4057 501.3 68.3963C501.324 67.4083 501.139 66.4265 500.756 65.5159C500.373 64.6053 499.802 63.787 499.079 63.1153C498.358 62.4166 497.506 61.8685 496.573 61.5026C495.639 61.1367 494.642 60.9604 493.64 60.9838H473.3V76.0785ZM473.3 96.6195V116.934H494.985C496.154 116.933 497.307 116.659 498.353 116.135C499.399 115.611 500.309 114.852 501.013 113.915C502.727 111.885 503.651 109.302 503.615 106.642C503.697 104.013 502.787 101.449 501.065 99.4644C500.331 98.5635 499.404 97.84 498.353 97.3475C497.302 96.855 496.154 96.6062 494.994 96.6195H473.3ZM512.827 84.6916C516.194 87.2645 518.977 90.5269 520.989 94.2618C523.308 98.5303 524.502 103.321 524.459 108.182C524.484 112.128 523.68 116.035 522.1 119.649C520.582 123.124 518.419 126.278 515.724 128.94C513.029 131.586 509.863 133.702 506.391 135.178C502.786 136.734 498.901 137.53 494.976 137.519H450.956V40.4428H493.64C497.223 40.4234 500.77 41.1616 504.049 42.6091C507.213 43.9989 510.099 45.9533 512.567 48.3773C515.073 50.8478 517.06 53.798 518.408 57.053C519.757 60.308 520.44 63.8015 520.417 67.3262C520.489 70.9866 519.695 74.6121 518.101 77.9055C516.808 80.4951 515.015 82.8017 512.827 84.6916V84.6916Z" fill="#4169E1"/>
<path fill-rule="evenodd" clip-rule="evenodd" d="M393.708 60.9839L372.197 137.475H345.559L326.815 76.0612L308.079 137.475H281.702L254.414 40.4429H277.66L295.632 109.47L316.311 40.4429H337.328L358.137 110.009L375.701 42.5135V40.4429H442.404V60.9839H393.708Z" fill="#4169E1"/>
<path fill-rule="evenodd" clip-rule="evenodd" d="M574.82 171.919H593.789V181.489C593.789 187.579 589.721 191.207 583.736 191.207H569.771V186.144H583.589C586.668 186.144 588.724 184.934 588.724 181.62V176.956H569.771V167.386C569.771 161.296 573.805 157.668 579.781 157.668H593.278V162.749H579.955C576.867 162.749 574.82 163.958 574.82 167.273V171.919ZM533.185 170.666H547.705V175.59H533.194V181.681C533.194 184.995 535.249 186.205 538.337 186.205H551.66V191.268H538.155C532.187 191.268 528.145 187.64 528.145 181.55V167.438C528.145 161.348 532.213 157.72 538.155 157.72H550.42V162.749H538.337C535.275 162.749 533.194 163.984 533.194 167.273L533.185 170.666ZM504.448 179.862L509.123 191.233H503.676L499.539 181.272C499.261 181.272 498.992 181.272 498.715 181.272H493.658L491.706 176.208H498.402C501.49 176.208 503.607 174.981 503.607 171.641V167.29C503.607 163.95 501.473 162.723 498.402 162.723H489.598V191.172H484.55V157.72H498.732C504.622 157.72 508.698 161.322 508.698 167.351V171.701C508.698 175.06 507.371 178.113 504.448 179.862ZM455.076 186.309C458.355 186.309 459.587 184.282 459.587 181.193V157.764H464.635V181.333C464.635 187.283 461.044 191.373 454.99 191.373H450.28C444.208 191.373 440.582 187.301 440.582 181.333V157.764H445.674V181.193C445.674 184.247 446.888 186.309 450.141 186.309H455.076ZM412.886 162.819V191.225H407.838V162.827H398.713V157.764H422.046V162.827L412.886 162.819ZM365.666 162.645C362.378 162.645 361.155 164.724 361.155 167.804V191.233H356.124V167.665C356.124 161.688 359.733 157.581 365.813 157.581H370.48C376.551 157.581 380.177 161.688 380.177 167.665V191.233H375.129V167.804C375.129 164.75 373.871 162.645 370.61 162.645H365.666ZM319.529 170.666H334.049V175.59H319.529V181.681C319.529 184.995 321.585 186.205 324.673 186.205H337.996V191.268H324.49C318.523 191.268 314.481 187.64 314.481 181.55V167.438C314.481 161.348 318.549 157.72 324.49 157.72H336.738V162.749H324.673C321.611 162.749 319.529 163.984 319.529 167.273V170.666ZM283.099 183.212L293.108 157.581H298.694L285.866 189.415L285.709 189.746C285.469 190.243 285.091 190.661 284.62 190.949C284.15 191.238 283.606 191.385 283.055 191.373C282.526 191.372 282.007 191.222 281.558 190.941C281.109 190.659 280.747 190.257 280.514 189.78L280.297 189.337L267.503 157.581H273.089L283.099 183.212Z" fill="#6699FF"/>
<path fill-rule="evenodd" clip-rule="evenodd" d="M174.128 160.014V98.1772L161.012 105.737L161.046 105.797L132.083 122.603L113.059 111.343C109.71 109.497 106.361 107.416 103.012 105.376L99.0465 103.028L157.503 69.3161L103.856 38.3811L74.0753 55.5546L74.1356 55.6616L45.3329 72.2865L28.3528 62.3651C23.5032 59.863 18.7139 56.7655 13.7907 53.862L12.1563 52.9053L57.4635 26.8139L95.6438 4.81018L103.916 0L112.235 4.7968L199.179 54.9257L207.525 59.7426V179.194L174.128 160.014Z" fill="#6699FF"/>
<path fill-rule="evenodd" clip-rule="evenodd" d="M33.4318 160.43L87.0501 191.247V123.971L120.482 142.951V191.261L174.094 160.43L207.525 179.57L112.126 234.416L103.763 239.216L95.4064 234.416L0 179.57V73.9395C11.1462 80.2462 22.2901 86.5597 33.4318 92.8799V160.43Z" fill="#4169E1"/>
<path d="M179.451 169.966L168.634 176.23L174.187 185.878L185.004 179.614L179.451 169.966Z" fill="#6699FF"/>
<path d="M163.08 166.585L152.263 172.849L157.816 182.496L168.633 176.233L163.08 166.585Z" fill="#6699FF"/>
<path d="M174.187 185.884L163.37 192.148L168.89 201.738L179.707 195.474L174.187 185.884Z" fill="#6699FF"/>
<path d="M157.818 182.497L147.001 188.761L152.554 198.409L163.371 192.145L157.818 182.497Z" fill="#6699FF"/>
<path d="M152.55 198.409L141.734 204.673L147.254 214.263L158.07 207.999L152.55 198.409Z" fill="#6699FF"/>
<path fill-rule="evenodd" clip-rule="evenodd" d="M207.512 179.683L196.234 173.105L184.949 179.786L190.551 189.633L207.525 179.711" fill="#6699FF"/>
<path d="M196.237 147.879H184.949V160.927H196.237V147.879Z" fill="#4169E1"/>
<path d="M184.949 134.831H173.661V147.879H184.949V134.831Z" fill="#4169E1"/>
<path d="M207.525 134.831H196.237V147.879H207.525V134.831Z" fill="#4169E1"/>
<path d="M196.237 122.652H184.949V134.831H196.237V122.652Z" fill="#4169E1"/>
<path d="M207.525 110.474H196.237V122.652H207.525V110.474Z" fill="#4169E1"/>
<path fill-rule="evenodd" clip-rule="evenodd" d="M196.237 173.103V160.927H207.525V173.103V179.194L196.237 173.103Z" fill="#4169E1"/>
<path fill-rule="evenodd" clip-rule="evenodd" d="M190.559 189.633L184.949 179.77L196.237 173.105L207.525 179.694L190.559 189.633Z" fill="#6699FF"/>
</g>
<defs>
<clipPath id="clip0_4_34">
<rect width="600" height="239.216" fill="white"/>
</clipPath>
</defs>
</svg>
